# xmcd
# 
# Track frame offsets:
#     182
#     62597
#     129307
#     158220
#     205545
#     242782
# 
# Disc length: 3571
# 
# Revision: 11
# Processed by: cddbd v1.5.2PL0 Copyright (c) Steve Scherf et al.
# Submitted via: fre:ac v1.0.17
# 
DISCID=470df106
DTITLE=Derek And The Dominos - Live At The Fillmore [CD1)
DYEAR=1970
DGENRE=Rock
TTITLE0=Got To Get Better In A Little While
TTITLE1=Why Does Love Got To Be So Sad
TTITLE2=Key To The Highway
TTITLE3=Blues Power
TTITLE4=Have You Ever Loved A Woman
TTITLE5=Bottle Of Red Wine
EXTD=YEAR: 1994
EXTT0=
EXTT1=
EXTT2=
EXTT3=
EXTT4=
EXTT5=
PLAYORDER=
